<svg xmlns="http://www.w3.org/2000/svg" viewBox="0 0 128 128" width="128" height="128" role="img" aria-label="MarketingExperienceApi"><title>MarketingExperienceApi</title><defs><linearGradient id="bg" x1="0%" y1="0%" x2="92%" y2="100%"><stop offset="0%" stop-color="#F88A8D"/><stop offset="100%" stop-color="#E5484D"/></linearGradient><filter id="lift" x="-30%" y="-30%" width="160%" height="160%"><feDropShadow dx="0" dy="3" stdDeviation="3.5" flood-color="#7A1417" flood-opacity="0.30"/></filter></defs><rect width="128" height="128" rx="28" fill="url(#bg)"/><g transform="translate(64,64)" filter="url(#lift)"><polygon points="-34,-6 -10,-10 12,-26 12,26 -10,10 -34,6" fill="#ffffff"/><rect x="8" y="-26" width="7" height="52" rx="3" fill="#FFC24D"/><path d="M24,-12 a16,16 0 0 1 0,26" fill="none" stroke="#FFC24D" stroke-width="4" stroke-linecap="round"/><circle cx="30" cy="28" r="15" fill="#6A45D9"/><g stroke="#ffffff" stroke-width="2.1"><line x1="30" y1="20" x2="23" y2="34"/><line x1="30" y1="20" x2="38" y2="33"/><line x1="23" y1="34" x2="38" y2="33"/></g><circle cx="30" cy="20" r="3.1" fill="#fff"/><circle cx="22.5" cy="34" r="3.1" fill="#fff"/><circle cx="38" cy="33" r="3.1" fill="#fff"/></g></svg>